<svg xmlns="http://www.w3.org/2000/svg" width="177.104" height="77.088" viewBox="0 0 177.104 77.088"><defs><style>.a{fill:#fff;}.b{fill:#e51d2a;}.c{fill:#2aade4;}</style></defs><g transform="translate(0 0.18)"><path class="a" d="M25.074,14.652c1.457-3.429-.429-7.544-4.2-9.131s-16.289-.986-16.8.214S11.785,16.366,15.557,18,23.616,18.081,25.074,14.652Z" transform="translate(-4.046 -3.772)"/><path class="a" d="M85.03,25.53c4.715,0,8.53-3.172,8.53-7.03a5.765,5.765,0,0,0-.214-1.5H76.714a5.765,5.765,0,0,0-.214,1.5C76.5,22.358,80.315,25.53,85.03,25.53Z" transform="translate(-45.442 -10.879)"/><path class="a" d="M61.048,53.032C61.048,42.873,54.746,37,44.93,37L39.4,44.5h5.315l6.13,23.276C50.888,67.778,61.048,64.134,61.048,53.032Z" transform="translate(-24.245 -22.305)"/><path class="a" d="M160.248,3.912c-.514-1.2-13.031-1.843-16.8-.214s-5.658,5.7-4.2,9.131,5.7,4.93,9.516,3.344S160.762,5.069,160.248,3.912Z" transform="translate(-81.008 -2.72)"/><path class="a" d="M85.288,106.995c-.343,0-9.988-.472-9.988,8.745v5.53s0,3.429,2.7,3.429c2.786,0,3.3-3,3.3-3s2.958-.043,3.987-.086c1.115,0,4.544.086,4.544.086s.514,3,3.3,3c2.7,0,2.7-3.429,2.7-3.429v-5.53C95.833,106.523,85.631,106.995,85.288,106.995Z" transform="translate(-44.756 -62.293)"/><path class="a" d="M104.9,53.032c0,11.1,10.159,14.746,10.159,14.746L121.232,44.5h5.315l-5.53-7.5C111.2,37,104.9,42.873,104.9,53.032Z" transform="translate(-61.668 -22.305)"/></g><path class="b" d="M233.471,2.3h11.66V21.075h12.688L275.052,64.5H263.306L250.1,31.706l-5.144.043.472,32.75h-11.96V35.521h-.9L221,64.5h-7.93L200.378,34.021h-.6V51.854s-.814,14.232-16.032,14.232c-11.96,0-15.346-8.059-15.346-11.017V45.809h10.2l-.086,4.672s.043,4.072,4.844,4.072,4.5-4.072,4.5-4.072L187.947,2.3h11.874l-.171,14.66h4.072l13.546,29.492L229.656,16.96H233.3Z" transform="translate(-97.948 -2.3)"/><rect class="a" width="106" height="4" transform="translate(70 69.544)"/><rect class="c" width="106" height="4" transform="translate(70 66)"/><rect class="c" width="106" height="4" transform="translate(70 73.088)"/></svg>