<svg xmlns="http://www.w3.org/2000/svg" width="68.815" height="68.815" viewBox="0 0 68.815 68.815"><defs><style>.a{fill:#fff;}</style></defs><g transform="translate(0)"><g transform="translate(17.703 53.937)"><path class="a" d="M348.635,817.98l.464.349-1.285,2.446-.342-.258.263-.48,0,.006-.389-.293-.383.38-.318-.239Zm-.722,1.739.658-1.192-.006,0-.96.965Z" transform="translate(-346.64 -817.484)"/><path class="a" d="M397.977,844.54l.565.29a.548.548,0,0,1,.278.848l-.076.149q-.194.378-.495.35l0,.007a.333.333,0,0,1,.108.27.95.95,0,0,1-.119.373l-.219.426a1.732,1.732,0,0,0-.079.171.491.491,0,0,0-.03.144l-.388-.2a.625.625,0,0,1,.03-.125,1.892,1.892,0,0,1,.089-.191l.228-.443a.422.422,0,0,0,.065-.26.256.256,0,0,0-.152-.161l-.132-.068-.534,1.04-.381-.2Zm-.014,1.307a.259.259,0,0,0,.2.03.311.311,0,0,0,.159-.168l.1-.187a.347.347,0,0,0,.051-.214.2.2,0,0,0-.117-.135l-.173-.089-.356.693Z" transform="translate(-392.827 -841.974)"/><path class="a" d="M452.078,869.519a.724.724,0,0,1,0-.535l.429-1.368a.725.725,0,0,1,.309-.436.725.725,0,0,1,.907.284.724.724,0,0,1,0,.535l-.07.223-.387-.122.078-.249c.054-.171.01-.279-.132-.323s-.238.019-.292.19l-.447,1.424q-.079.253.132.319t.291-.186l.16-.51-.2-.064.117-.372.591.186-.267.852a.726.726,0,0,1-.309.436.726.726,0,0,1-.908-.284Z" transform="translate(-443.814 -862.786)"/><path class="a" d="M507.226,878.42l1.158.161-.054.386-.733-.1-.1.714.583.081-.054.386-.583-.081-.115.83.733.1-.054.386-1.158-.161Z" transform="translate(-494.365 -873.214)"/><path class="a" d="M562.35,882.078l.538-.016.463,1.62h.008l-.047-1.632.382-.011.078,2.727-.44.013-.57-1.975h-.008l.057,1.99-.382.011Z" transform="translate(-545.54 -876.552)"/><path class="a" d="M615.176,875.245l-.439.088-.076-.382,1.3-.261.077.382-.44.088.461,2.292-.42.084Z" transform="translate(-593.774 -869.774)"/><path class="a" d="M665.43,862.9l.4-.147.936,2.562-.4.147Z" transform="translate(-640.588 -858.765)"/><path class="a" d="M704.4,840.121l.471-.26,1.156,1.226.007,0-.792-1.428.334-.185,1.322,2.385-.385.214-1.415-1.492-.007,0,.965,1.742-.334.185Z" transform="translate(-676.521 -837.299)"/><path class="a" d="M753.26,811.974l.453-.364,2.054,1.849-.334.268-.4-.373,0,.006-.379.3.273.465-.31.249Zm1.506,1.128-.993-.931-.006,0,.7,1.168Z" transform="translate(-721.573 -811.61)"/></g><g transform="translate(0 0)"><g transform="translate(31.872 11.984)"><path class="a" d="M531.179,273.25l.64,1.968h2.07l-1.675,1.216.64,1.968-1.675-1.216L529.5,278.4l.639-1.968-1.674-1.216h2.07Z" transform="translate(-528.47 -273.25)"/></g><g transform="translate(31.872 50.886)"><path class="a" d="M531.179,772.46l.64,1.968h2.07l-1.675,1.216.64,1.968-1.675-1.216-1.674,1.216.639-1.968-1.674-1.216h2.07Z" transform="translate(-528.47 -772.46)"/></g><g transform="translate(0)"><path class="a" d="M153.877,188.285a34.407,34.407,0,1,1,34.407-34.407A34.446,34.446,0,0,1,153.877,188.285Zm0-67.51a33.1,33.1,0,1,0,33.1,33.1A33.14,33.14,0,0,0,153.877,120.774Z" transform="translate(-119.47 -119.47)"/></g><g transform="translate(3.045 3.045)"><path class="a" d="M189.9,221.265A31.362,31.362,0,1,1,221.265,189.9,31.4,31.4,0,0,1,189.9,221.265Zm0-61.942a30.58,30.58,0,1,0,30.579,30.58A30.614,30.614,0,0,0,189.9,159.323Z" transform="translate(-158.54 -158.54)"/></g><g transform="translate(10.614 20.836)"><rect class="a" width="48.271" height="0.522"/></g><g transform="translate(10.614 47.457)"><rect class="a" width="48.271" height="0.522"/></g></g><g transform="translate(11.699 23.927)"><path class="a" d="M273.1,435.5H269.59v-2.377a8.779,8.779,0,0,0,2.3-.244,2.891,2.891,0,0,0,1.386-.807,4.949,4.949,0,0,0,.914-1.63h2.255v21.334h-3.352V435.5Z" transform="translate(-269.59 -430.134)"/><path class="a" d="M409.99,445.861a9.519,9.519,0,0,1,.732-3.916,13.544,13.544,0,0,1,2.621-3.611,15.988,15.988,0,0,0,2.576-3.383,6.355,6.355,0,0,0,.716-2.926,3.063,3.063,0,0,0-.442-1.9,1.587,1.587,0,0,0-1.3-.533q-1.737,0-1.737,2.1v2.286h-3.169V431.9a5.658,5.658,0,0,1,1.28-3.977,5.679,5.679,0,0,1,7.436,0,5.658,5.658,0,0,1,1.28,3.977,8.43,8.43,0,0,1-.93,3.81,18.8,18.8,0,0,1-3.215,4.267,12.945,12.945,0,0,0-2.011,2.576,4.5,4.5,0,0,0-.518,2.118v.457h6.37v3.048H409.99Z" transform="translate(-399.049 -426.538)"/><path class="a" d="M565.345,447.082a5.593,5.593,0,0,1-1.265-3.931v-1.737h3.169v1.89q0,2.1,1.737,2.1a1.586,1.586,0,0,0,1.3-.533,3,3,0,0,0,.442-1.874v-1.737a3.294,3.294,0,0,0-.518-2.088,2.061,2.061,0,0,0-1.676-.625H567.4V435.5h1.219a2.01,2.01,0,0,0,1.509-.518,2.448,2.448,0,0,0,.5-1.737v-1.555a2.4,2.4,0,0,0-.458-1.615,1.546,1.546,0,0,0-1.219-.518q-1.615,0-1.615,1.981v1.4H564.17v-1.128a5.594,5.594,0,0,1,1.265-3.931,5.566,5.566,0,0,1,7.3-.016,5.579,5.579,0,0,1,1.25,3.917v.762a5.784,5.784,0,0,1-.579,2.789,3.287,3.287,0,0,1-1.8,1.509v.061a3.36,3.36,0,0,1,1.89,1.585,5.987,5.987,0,0,1,.579,2.8v1.89a5.537,5.537,0,0,1-1.265,3.916,5.792,5.792,0,0,1-7.467-.016Z" transform="translate(-541.131 -426.51)"/><path class="a" d="M727.676,433.478H720.91V430.43h10.057v2.925l-5.242,18.408h-3.413Z" transform="translate(-685.74 -430.125)"/></g><g transform="translate(16.88 7.462)"><path class="a" d="M336.08,285.38l.471-.34,1.958,1.951-.348.251-.38-.394,0,.006-.4.285.249.478-.322.233Zm1.447,1.2-.944-.981-.006,0,.637,1.2Z" transform="translate(-336.08 -279.6)"/><path class="a" d="M382.46,255.419l.567-.288a.659.659,0,0,1,.5-.082.652.652,0,0,1,.35.353l.076.15a.51.51,0,0,1-.007.606l0,.007a.334.334,0,0,1,.283.071.967.967,0,0,1,.232.315l.217.427a1.772,1.772,0,0,0,.093.165.467.467,0,0,0,.1.109l-.389.2a.555.555,0,0,1-.084-.1,1.869,1.869,0,0,1-.1-.184l-.226-.445a.424.424,0,0,0-.172-.206.257.257,0,0,0-.22.028l-.132.067.529,1.042-.382.194Zm1.05.778a.255.255,0,0,0,.142-.146.311.311,0,0,0-.044-.227l-.1-.188a.348.348,0,0,0-.144-.168.2.2,0,0,0-.178.016l-.174.088.353.7Z" transform="translate(-378.846 -251.927)"/><path class="a" d="M439.078,235.526a.721.721,0,0,1-.312-.433l-.443-1.364a.725.725,0,0,1,0-.534.726.726,0,0,1,.9-.294.721.721,0,0,1,.312.433l.072.222-.386.125-.08-.249q-.083-.256-.295-.187c-.141.046-.184.153-.129.324l.461,1.419q.082.253.293.183t.129-.32l-.165-.508-.2.066-.12-.371.589-.191.276.849a.722.722,0,0,1,0,.534.726.726,0,0,1-.9.295Z" transform="translate(-430.308 -231.465)"/><path class="a" d="M493.39,219.2l1.154-.187.062.385-.731.118.115.711.581-.094.062.385-.581.094.134.827.731-.118.062.385-1.154.187Z" transform="translate(-481.131 -218.715)"/><path class="a" d="M549.92,215.252l.538-.009.443,1.626h.008l-.026-1.633.382-.006.044,2.727-.44.007-.546-1.982h-.008l.032,1.991-.382.006Z" transform="translate(-533.256 -215.23)"/><path class="a" d="M608.873,218.641l-.443-.065.057-.386,1.311.193-.057.386-.443-.065-.34,2.313-.424-.062Z" transform="translate(-587.206 -217.959)"/><path class="a" d="M657.167,229.89l.411.121-.767,2.618-.411-.121Z" transform="translate(-631.438 -228.748)"/><path class="a" d="M698.473,246.04l.489.224-.3,1.658.007,0,.679-1.485.348.159-1.134,2.48-.4-.183.36-2.025-.007,0-.828,1.811-.348-.159Z" transform="translate(-669.188 -243.639)"/><path class="a" d="M746.66,276.65l.484.321L746,279.489l-.357-.237.234-.494,0,.006-.406-.27-.36.4-.331-.22Zm-.62,1.778.587-1.229-.006,0-.9,1.019Z" transform="translate(-712.931 -271.864)"/></g></g></svg>